<?xml version="1.0" standalone="no"?><!DOCTYPE svg PUBLIC "-//W3C//DTD SVG 1.1//EN" "http://www.w3.org/Graphics/SVG/1.1/DTD/svg11.dtd"><svg t="1660969164584" class="icon" viewBox="0 0 1024 1024" version="1.1" xmlns="http://www.w3.org/2000/svg" p-id="22594" xmlns:xlink="http://www.w3.org/1999/xlink" width="200" height="200"><defs><style type="text/css">@font-face { font-family: feedback-iconfont; src: url("//at.alicdn.com/t/font_1031158_u69w8yhxdu.woff2?t=1630033759944") format("woff2"), url("//at.alicdn.com/t/font_1031158_u69w8yhxdu.woff?t=1630033759944") format("woff"), url("//at.alicdn.com/t/font_1031158_u69w8yhxdu.ttf?t=1630033759944") format("truetype"); }
</style></defs><path d="M768 384a256 256 0 1 0-256 256 256 256 0 0 0 256-256z m64 0A320 320 0 1 1 512 64a320 320 0 0 1 320 320z" p-id="22595" fill="#d81e06"></path><path d="M480 672a32 32 0 0 1 64 0v224a32 32 0 0 1-64 0z" p-id="22596" fill="#d81e06"></path><path d="M416 832a32 32 0 0 1 0-64h192a32 32 0 0 1 0 64z" p-id="22597" fill="#d81e06"></path></svg>