<?xml version="1.0" standalone="no"?><!DOCTYPE svg PUBLIC "-//W3C//DTD SVG 1.1//EN" "http://www.w3.org/Graphics/SVG/1.1/DTD/svg11.dtd"><svg t="1670044015500" class="icon" viewBox="0 0 1024 1024" version="1.1" xmlns="http://www.w3.org/2000/svg" p-id="19396" xmlns:xlink="http://www.w3.org/1999/xlink" width="200" height="200"><path d="M635.625138 869.703785H553.208379c-16.558618 0-28.224917-11.666299-28.224917-28.224917s11.666299-28.224917 28.224917-28.224917h82.416759c16.558618 0 28.224917 11.666299 28.224917 28.224917-0.376332 16.558618-11.666299 28.224917-28.224917 28.224917z m-82.416759-41.396545c-8.279309 0-13.171628 4.892319-13.171628 13.171628s4.892319 13.171628 13.171628 13.171628h82.416759c8.279309 0 13.171628-4.892319 13.171628-13.171628s-4.892319-13.171628-13.171628-13.171628H553.208379zM305.958104 869.703785H223.917677c-16.558618 0-28.224917-11.666299-28.224917-28.224917s11.666299-28.224917 28.224917-28.224917h82.416759c16.558618 0 28.224917 11.666299 28.224917 28.224917-0.376332 16.558618-12.042631 28.224917-28.601249 28.224917z m-82.040427-41.396545c-8.279309 0-13.171628 4.892319-13.171628 13.171628s4.892319 13.171628 13.171628 13.171628h82.416759c8.279309 0 13.171628-4.892319 13.171628-13.171628s-4.892319-13.171628-13.171628-13.171628H223.917677zM470.791621 869.703785h-82.416759c-16.558618 0-28.224917-11.666299-28.224917-28.224917s11.666299-28.224917 28.224917-28.224917h82.416759c16.558618 0 28.224917 11.666299 28.224917 28.224917s-11.666299 28.224917-28.224917 28.224917z m-82.416759-41.396545c-8.279309 0-13.171628 4.892319-13.171628 13.171628s4.892319 13.171628 13.171628 13.171628h82.416759c8.279309 0 13.171628-4.892319 13.171628-13.171628s-4.892319-13.171628-13.171628-13.171628h-82.416759zM512.188166 643.151782c-129.081955 0-234.078648-104.996692-234.078647-233.702315 0-62.847483 24.461595-121.555311 68.492466-165.586181 44.030871-44.030871 102.738699-68.492466 165.586181-68.492466 129.081955 0 234.078648 104.996692 234.078648 233.702315 0 62.847483-24.461595 121.555311-68.492466 165.586181-44.030871 44.030871-103.115031 68.492466-165.586182 68.492466z m0-452.727673c-120.802646 0-219.025358 98.222712-219.025358 219.025358s98.222712 218.649026 219.025358 218.649026 219.025358-98.222712 219.025358-219.025358c-0.376332-120.802646-98.599044-218.649026-219.025358-218.649026z" fill="#dddddd" p-id="19397"></path><path d="M512.188166 601.755237c-51.933848 0-100.480706-19.945608-136.6086-56.073502-36.127894-36.127894-56.073502-84.674752-56.073502-136.6086S339.451672 308.592429 375.579566 272.464535c36.127894-36.127894 84.674752-56.073502 136.6086-56.073502s100.480706 19.945608 136.6086 56.073502c36.127894 36.127894 56.073502 84.674752 56.073502 136.6086s-19.945608 100.480706-56.073502 136.6086c-36.504226 36.127894-85.051084 56.073502-136.6086 56.073502z m0-370.310915c-97.84638 0-177.628813 79.782433-177.628813 177.628813 0 97.84638 79.782433 177.628813 177.628813 177.628813 97.84638 0 177.628813-79.782433 177.628813-177.628813 0-97.84638-79.782433-177.628813-177.628813-177.628813z" fill="#dddddd" p-id="19398"></path><path d="M841.478868 951.744212h-658.581404c-39.514884 0-69.24513-29.730246-69.24513-69.245131V141.500919c0-39.514884 29.730246-69.24513 69.24513-69.245131h658.581404c39.514884 0 69.24513 29.730246 69.245131 69.245131v740.998162c0 39.514884-29.730246 69.24513-69.245131 69.245131zM182.521132 87.309078c-30.859243 0-54.191841 23.332598-54.191841 54.191841v740.998162c0 30.859243 23.332598 54.191841 54.191841 54.191841h658.581404c30.859243 0 54.191841-23.332598 54.191841-54.191841V141.500919c0-30.859243-23.332598-54.191841-54.191841-54.191841h-658.581404z" fill="#dddddd" p-id="19399"></path><path d="M120.802646 702.235943H903.197354v15.053289H120.802646z" fill="#dddddd" p-id="19400"></path></svg>