<?xml version="1.0" standalone="no"?><!DOCTYPE svg PUBLIC "-//W3C//DTD SVG 1.1//EN" "http://www.w3.org/Graphics/SVG/1.1/DTD/svg11.dtd"><svg t="1670043734035" class="icon" viewBox="0 0 1024 1024" version="1.1" xmlns="http://www.w3.org/2000/svg" p-id="16599" xmlns:xlink="http://www.w3.org/1999/xlink" width="200" height="200"><path d="M872.4 224.5c-34.8 0-63.1 28.3-63.1 63.1v12.9h-34v-12.9c0-34.8-28.3-63.1-63.1-63.1s-63.1 28.3-63.1 63.1v12.9h-34v-12.9c0-34.8-28.3-63.1-63.1-63.1s-63.1 28.3-63.1 63.1v12.9h-34v-12.9c0-34.8-28.3-63.1-63.1-63.1s-63.1 28.3-63.1 63.1v12.9h-34v-12.9c0-34.8-28.3-63.1-63.1-63.1s-63.1 28.3-63.1 63.1v44.6h-21.3v-11.3c0-24.5-19.9-44.4-44.4-44.4s-44.4 19.9-44.4 44.4v47.9c0 24.5 19.9 44.4 44.4 44.4s44.4-19.9 44.4-44.4v-11.3h21.3V844.3h75.7v-60.6c28.8-5.9 50.5-31.4 50.5-61.8v-19.8h34v19.8c0 34.8 28.3 63.1 63.1 63.1s63.1-28.3 63.1-63.1v-19.8h34v19.8c0 34.8 28.3 63.1 63.1 63.1s63.1-28.3 63.1-63.1v-19.8h34v19.8c0 34.8 28.3 63.1 63.1 63.1s63.1-28.3 63.1-63.1v-19.8h34v19.8c0 30.5 21.7 56 50.5 61.8v60.6h75.7V287.6c0-34.8-28.3-63.1-63.1-63.1zM122.1 368.8c0 10.5-8.6 19.1-19.1 19.1s-19.1-8.6-19.1-19.1v-47.9c0-10.5 8.6-19.1 19.1-19.1s19.1 8.6 19.1 19.1v47.9z m71.8 450.3v-47c7.4 5.6 15.9 9.8 25.2 11.7v35.3h-25.2z m75.7-97.2c0 20.9-17 37.9-37.9 37.9s-37.9-17-37.9-37.9V287.6c0-20.9 17-37.9 37.9-37.9s37.9 17 37.9 37.9v434.3z m59.2-396.1v60.9h-34v-60.9h34z m0 86.1v181.9h-34V411.9h34z m-34 264.9V619h34v57.8h-34z m134.9 45.1c0 20.9-17 37.9-37.9 37.9s-37.9-17-37.9-37.9V287.6c0-20.9 17-37.9 37.9-37.9s37.9 17 37.9 37.9v434.3zM489 325.8v60.9h-34v-60.9h34z m0 86.1v181.9h-34V411.9h34z m-34 264.9V619h34v57.8h-34z m134.9 45.1c0 20.9-17 37.9-37.9 37.9s-37.9-17-37.9-37.9V287.6c0-20.9 17-37.9 37.9-37.9s37.9 17 37.9 37.9v434.3z m59.2-396.1v60.9h-34v-60.9h34z m0 86.1v181.9h-34V411.9h34z m-34 264.9V619h34v57.8h-34z m135 45.1c0 20.9-17 37.9-37.9 37.9s-37.9-17-37.9-37.9V287.6c0-20.9 17-37.9 37.9-37.9s37.9 17 37.9 37.9v434.3z m59.2-396.1v60.9h-34v-60.9h34z m0 86.1v181.9h-34V411.9h34z m-34 264.9V619h34v57.8h-34zM885 819.1v-35.3c9.4-1.9 17.9-6.1 25.2-11.7v47H885z m25.2-97.2c0 20.9-17 37.9-37.9 37.9s-37.9-17-37.9-37.9V287.6c0-20.9 17-37.9 37.9-37.9s37.9 17 37.9 37.9v434.3z" fill="#dddddd" p-id="16600"></path></svg>