<?xml version="1.0" standalone="no"?><!DOCTYPE svg PUBLIC "-//W3C//DTD SVG 1.1//EN" "http://www.w3.org/Graphics/SVG/1.1/DTD/svg11.dtd"><svg t="1670043445984" class="icon" viewBox="0 0 1397 1024" version="1.1" xmlns="http://www.w3.org/2000/svg" p-id="14296" xmlns:xlink="http://www.w3.org/1999/xlink" width="272.8515625" height="272.8515625"><path d="M1288.865003 0H102.480652a102.480652 102.480652 0 0 0-102.480652 102.480652v540.756242a102.480652 102.480652 0 0 0 102.480652 102.480652h177.633131l2.049613 43.383477a102.480652 102.480652 0 0 0 102.480652 98.039824h88.816566a9.564861 9.564861 0 0 0 0 3.074419v74.810876a54.656348 54.656348 0 1 0 108.971093 0v-74.810876L580.723696 888.165653h228.531855v77.885296a54.656348 54.656348 0 0 0 109.312696 0v-75.835683-3.074419h88.474963a102.480652 102.480652 0 0 0 102.480652-98.039824l1.708011-43.383477h177.63313a102.480652 102.480652 0 0 0 102.480653-102.480652V102.480652a102.480652 102.480652 0 0 0-102.480653-102.480652z m-281.821793 819.845218H384.302446a34.160217 34.160217 0 0 1-34.160217-34.160217l-6.14884-136.64087a34.160217 34.160217 0 0 1 9.564861-24.936959 34.160217 34.160217 0 0 1 24.595357-10.589667h635.038442a34.160217 34.160217 0 0 1 24.936959 10.589667 34.160217 34.160217 0 0 1 9.223258 24.936959l-6.148839 136.64087a34.160217 34.160217 0 0 1-34.160217 34.160217z m315.982011-175.583517a34.160217 34.160217 0 0 1-34.160218 34.160217h-174.217108v-25.961765a102.480652 102.480652 0 0 0-102.480653-106.921481H378.153607a102.480652 102.480652 0 0 0-74.127672 31.4274 102.480652 102.480652 0 0 0-28.35298 75.494081v25.961765H102.480652a34.160217 34.160217 0 0 1-34.160217-34.160217V102.480652a34.160217 34.160217 0 0 1 34.160217-34.160217h1186.384351a34.160217 34.160217 0 0 1 34.160218 34.160217z" fill="#231815" p-id="14297"></path><path d="M1134.802423 287.287429a68.320435 68.320435 0 1 0 68.320435 68.320434 68.320435 68.320435 0 0 0-68.320435-68.320434z" fill="#231815" p-id="14298"></path></svg>