<?xml version="1.0" standalone="no"?><!DOCTYPE svg PUBLIC "-//W3C//DTD SVG 1.1//EN" "http://www.w3.org/Graphics/SVG/1.1/DTD/svg11.dtd"><svg t="1670043929543" class="icon" viewBox="0 0 1434 1024" version="1.1" xmlns="http://www.w3.org/2000/svg" p-id="18958" xmlns:xlink="http://www.w3.org/1999/xlink" width="280.078125" height="280.078125"><path d="M1262.892894 1023.996997H170.499171A170.498837 170.498837 0 0 1 0.000334 853.164503V170.50184A170.498837 170.498837 0 0 1 170.499171 0.003003h1092.393723A170.832494 170.832494 0 0 1 1434.72636 170.50184v682.662663a170.832494 170.832494 0 0 1-171.833466 170.832494zM170.499171 68.402732a102.099108 102.099108 0 0 0-102.099108 102.099108v682.662663a102.099108 102.099108 0 0 0 102.099108 102.432765h1092.393723a102.432765 102.432765 0 0 0 102.432765-102.432765V170.50184a102.432765 102.432765 0 0 0-102.432765-102.099108z" p-id="18959"></path><path d="M853.161834 819.131467H238.8989a33.365722 33.365722 0 0 1-33.365722-33.365722V238.901569a33.365722 33.365722 0 0 1 33.365722-33.365721h614.262934a33.365722 33.365722 0 0 1 33.365721 33.365721v546.196862a33.365722 33.365722 0 0 1-33.365721 34.033036z m-580.229898-66.731443h546.196862V272.934605H272.931936zM1023.994328 204.868533h204.86553v68.399729h-204.86553zM1023.994328 409.734063h204.86553v68.39973h-204.86553zM1092.394057 614.265937h68.399729v68.399729h-68.399729zM1023.994328 819.131467h68.399729v170.832494h-68.399729zM1160.460129 819.131467h68.399729v170.832494h-68.399729z" p-id="18960"></path></svg>